<svg width="32" height="25" viewBox="0 0 32 25" fill="none" xmlns="http://www.w3.org/2000/svg">
<g clip-path="url(#clip0_0_9)">
<path d="M5.81738 24.8758V23.2211C5.81738 22.5868 5.43322 22.1731 4.77464 22.1731C4.44536 22.1731 4.08863 22.2834 3.84166 22.6419C3.64958 22.3386 3.37517 22.1731 2.96356 22.1731C2.68916 22.1731 2.41475 22.2558 2.19523 22.5592V22.2283H1.61898V24.8758H2.19523V23.4141C2.19523 22.9453 2.44219 22.7247 2.82636 22.7247C3.21053 22.7247 3.40261 22.9729 3.40261 23.4141V24.8758H3.97887V23.4141C3.97887 22.9453 4.25327 22.7247 4.61 22.7247C4.99417 22.7247 5.18625 22.9729 5.18625 23.4141V24.8758H5.81738ZM14.3514 22.2283H13.4184V21.4285H12.8422V22.2283H12.3208V22.7522H12.8422V23.9657C12.8422 24.5724 13.0891 24.9309 13.7477 24.9309C13.9947 24.9309 14.2691 24.8482 14.4612 24.7379L14.2965 24.2415C14.1319 24.3518 13.9398 24.3794 13.8026 24.3794C13.5282 24.3794 13.4184 24.2139 13.4184 23.9381V22.7522H14.3514V22.2283ZM19.2358 22.1731C18.9065 22.1731 18.687 22.3386 18.5498 22.5592V22.2283H17.9736V24.8758H18.5498V23.3866C18.5498 22.9453 18.7419 22.6971 19.0986 22.6971C19.2084 22.6971 19.3456 22.7247 19.4553 22.7522L19.62 22.2007C19.5102 22.1731 19.3456 22.1731 19.2358 22.1731ZM11.8543 22.4489C11.5799 22.2558 11.1957 22.1731 10.7841 22.1731C10.1256 22.1731 9.68651 22.504 9.68651 23.028C9.68651 23.4693 10.0158 23.7175 10.592 23.8002L10.8665 23.8278C11.1683 23.883 11.3329 23.9657 11.3329 24.1036C11.3329 24.2966 11.1134 24.4345 10.7292 24.4345C10.3451 24.4345 10.0432 24.2966 9.85115 24.1587L9.57674 24.6C9.87859 24.8206 10.2902 24.9309 10.7018 24.9309C11.4701 24.9309 11.9092 24.5724 11.9092 24.076C11.9092 23.6072 11.5525 23.359 11.0037 23.2762L10.7292 23.2487C10.4823 23.2211 10.2902 23.1659 10.2902 23.0005C10.2902 22.8074 10.4823 22.6971 10.7841 22.6971C11.1134 22.6971 11.4427 22.835 11.6073 22.9177L11.8543 22.4489ZM27.1662 22.1731C26.8369 22.1731 26.6173 22.3386 26.4801 22.5592V22.2283H25.9039V24.8758H26.4801V23.3866C26.4801 22.9453 26.6722 22.6971 27.0289 22.6971C27.1387 22.6971 27.2759 22.7247 27.3857 22.7522L27.5503 22.2007C27.4406 22.1731 27.2759 22.1731 27.1662 22.1731ZM19.8121 23.552C19.8121 24.3518 20.3609 24.9309 21.2115 24.9309C21.5957 24.9309 21.8701 24.8482 22.1445 24.6276L21.8701 24.1587C21.6506 24.3242 21.4311 24.407 21.1841 24.407C20.7176 24.407 20.3883 24.076 20.3883 23.552C20.3883 23.0556 20.7176 22.7247 21.1841 22.6971C21.4311 22.6971 21.6506 22.7798 21.8701 22.9453L22.1445 22.4765C21.8701 22.2558 21.5957 22.1731 21.2115 22.1731C20.3609 22.1731 19.8121 22.7522 19.8121 23.552ZM25.1355 23.552V22.2283H24.5593V22.5592C24.3672 22.311 24.0928 22.1731 23.7361 22.1731C22.9952 22.1731 22.4189 22.7522 22.4189 23.552C22.4189 24.3518 22.9952 24.9309 23.7361 24.9309C24.1202 24.9309 24.3947 24.7931 24.5593 24.5448V24.8758H25.1355V23.552ZM23.0226 23.552C23.0226 23.0832 23.3245 22.6971 23.8184 22.6971C24.2849 22.6971 24.6142 23.0556 24.6142 23.552C24.6142 24.0209 24.2849 24.407 23.8184 24.407C23.3245 24.3794 23.0226 24.0209 23.0226 23.552ZM16.135 22.1731C15.3667 22.1731 14.8179 22.7247 14.8179 23.552C14.8179 24.3794 15.3667 24.9309 16.1625 24.9309C16.5466 24.9309 16.9308 24.8206 17.2327 24.5724L16.9583 24.1587C16.7387 24.3242 16.4643 24.4345 16.1899 24.4345C15.8332 24.4345 15.4765 24.2691 15.3941 23.8002H17.3424V23.5796C17.3699 22.7247 16.8759 22.1731 16.135 22.1731ZM16.135 22.6695C16.4918 22.6695 16.7387 22.8901 16.7936 23.3038H15.4216C15.4765 22.9453 15.7234 22.6695 16.135 22.6695ZM30.4316 23.552V21.1803H29.8553V22.5592C29.6632 22.311 29.3888 22.1731 29.0321 22.1731C28.2912 22.1731 27.715 22.7522 27.715 23.552C27.715 24.3518 28.2912 24.9309 29.0321 24.9309C29.4163 24.9309 29.6907 24.7931 29.8553 24.5448V24.8758H30.4316V23.552ZM28.3187 23.552C28.3187 23.0832 28.6205 22.6971 29.1144 22.6971C29.5809 22.6971 29.9102 23.0556 29.9102 23.552C29.9102 24.0209 29.5809 24.407 29.1144 24.407C28.6205 24.3794 28.3187 24.0209 28.3187 23.552ZM9.05537 23.552V22.2283H8.47912V22.5592C8.28704 22.311 8.01263 22.1731 7.6559 22.1731C6.91501 22.1731 6.33876 22.7522 6.33876 23.552C6.33876 24.3518 6.91501 24.9309 7.6559 24.9309C8.04007 24.9309 8.31448 24.7931 8.47912 24.5448V24.8758H9.05537V23.552ZM6.91501 23.552C6.91501 23.0832 7.21685 22.6971 7.71078 22.6971C8.17727 22.6971 8.50656 23.0556 8.50656 23.552C8.50656 24.0209 8.17727 24.407 7.71078 24.407C7.21685 24.3794 6.91501 24.0209 6.91501 23.552Z" fill="white"/>
<path d="M20.306 2.12365H11.6622V17.7331H20.306V2.12365Z" fill="#FF5F00"/>
<path d="M12.2111 9.92823C12.2111 6.75671 13.6928 3.94371 15.9704 2.12353C14.2965 0.79976 12.1836 -1.5717e-05 9.87861 -1.5717e-05C4.41793 -1.5717e-05 0 4.44012 0 9.92823C0 15.4163 4.41793 19.8565 9.87861 19.8565C12.1836 19.8565 14.2965 19.0567 15.9704 17.7329C13.6928 15.9403 12.2111 13.0998 12.2111 9.92823Z" fill="#EB001B"/>
<path d="M31.9683 9.92822C31.9683 15.4163 27.5504 19.8565 22.0897 19.8565C19.7847 19.8565 17.6718 19.0567 15.9979 17.7329C18.3029 15.9127 19.7573 13.0997 19.7573 9.92822C19.7573 6.75669 18.2755 3.94369 15.9979 2.12351C17.6718 0.799744 19.7847 -3.1434e-05 22.0897 -3.1434e-05C27.5504 -3.1434e-05 31.9683 4.46768 31.9683 9.92822Z" fill="#F79E1B"/>
</g>
<defs>
<clipPath id="clip0_0_9">
<rect width="31.0671" height="24.2711" fill="white" transform="scale(1.03003)"/>
</clipPath>
</defs>
</svg>
