<svg width="64" height="64" viewBox="0 0 64 64" fill="none" xmlns="http://www.w3.org/2000/svg">
<path d="M32 63.9971C49.6468 63.9971 64 49.644 64 32C64 14.3532 49.6468 0 32 0C14.3532 0 -1.52677e-05 14.3532 -1.52677e-05 32C0.00283979 49.644 14.356 63.9971 32 63.9971ZM32 0.579379C49.3243 0.579379 63.4206 14.6757 63.4206 32C63.4206 49.3243 49.3271 63.4178 32.0028 63.4178C14.6785 63.4178 0.582223 49.3243 0.582223 32C0.582223 14.6757 14.6757 0.579379 32 0.579379Z" fill="#303030"/>
<path d="M18.8062 43.6016L34.0103 44.9515C34.0235 43.7253 34.1077 39.4756 34.7156 37.5415C35.4076 35.3338 41.6887 36.1364 43.286 36.3785C44.1806 31.8788 45.699 29.029 45.7647 28.908C45.8437 28.7606 46.0279 28.7054 46.1752 28.7843C46.3226 28.8632 46.3778 29.0474 46.2989 29.1948C46.2831 29.2237 44.6938 32.213 43.8254 36.7784C43.7938 36.939 43.6386 37.0468 43.4781 37.0205C40.5493 36.5364 35.7392 36.2969 35.2945 37.7205C34.6235 39.8572 34.6156 45.2278 34.6156 45.2804C34.6156 45.3647 34.5787 45.4462 34.5182 45.5041C34.4629 45.5541 34.3893 45.5831 34.3129 45.5831C34.3051 45.5831 34.2945 45.5831 34.2866 45.5831L18.7562 44.2042C18.5904 44.1884 18.4667 44.0411 18.4825 43.8753C18.4904 43.7095 18.6404 43.5885 18.8062 43.6016Z" fill="#303030"/>
<path d="M15.8775 36.1522C16.1038 35.7654 16.4722 35.5259 16.9748 35.4391C18.5563 35.1654 27.9687 36.1916 29.7449 36.389C29.8581 35.7917 30.0791 34.2655 29.6923 32.9103C29.2897 31.4999 28.4503 28.5659 30.8448 27.8212C31.9658 27.4712 33.2183 27.6344 34.6656 27.8212C35.8392 27.9738 37.1707 28.1449 38.6627 28.0686C39.4389 28.0291 40.0862 28.0001 40.673 27.9738C42.5834 27.8896 43.8491 27.8344 46.7805 27.4897C47.3726 27.3107 48.0146 27.4344 48.4988 27.8265C48.9935 28.2264 49.254 28.8396 49.1935 29.4737L47.3068 49.6854C47.2962 49.8143 47.2041 49.9196 47.0805 49.9512L47.0068 49.9696V50.4959C47.0068 50.6064 46.9331 50.7037 46.8252 50.7327L45.3227 51.1248C45.1675 51.1642 45.0175 51.0485 45.0175 50.8879V50.4695L38.4785 52.1142V52.6589C38.4785 52.7694 38.4074 52.8667 38.2995 52.9009L36.2286 53.5404C36.1892 53.5535 36.1471 53.5562 36.1076 53.5483L34.5419 53.2562C34.4235 53.2351 34.3367 53.1299 34.3367 53.0088V52.4852L18.422 50.7274V51.0116C18.422 51.1353 18.3142 51.2327 18.1905 51.2195L16.8458 51.0616C16.7406 51.0485 16.6617 50.959 16.6617 50.8537V50.5169C16.5485 50.4722 16.4669 50.3669 16.4669 50.238V39.5414L15.8538 38.3757C15.8459 38.3625 15.8407 38.3494 15.8354 38.3362C15.8117 38.2836 15.3749 37.0126 15.8775 36.1522ZM16.3959 38.1178L17.0327 39.3309C17.0564 39.3756 17.0669 39.423 17.0669 39.473V49.9748L35.8681 52.051L36.2102 39.6598C36.2155 39.4914 36.3549 39.3572 36.5207 39.3651C36.6891 39.3704 36.8207 39.5098 36.8154 39.6756L36.476 51.9958L46.7226 49.4196L48.5909 29.4211C48.6304 28.9922 48.4541 28.5738 48.1172 28.3028C47.7804 28.0317 47.3515 27.9501 46.9331 28.0817C46.9147 28.087 46.8963 28.0922 46.8752 28.0949C43.9018 28.4448 42.6255 28.5001 40.6967 28.5869C40.1126 28.6133 39.4652 28.6422 38.6916 28.6817C37.1444 28.7606 35.7839 28.5869 34.584 28.4317C33.2052 28.2528 32.0158 28.1001 31.0211 28.4106C29.4133 28.9106 29.7107 30.7947 30.2712 32.7551C30.8053 34.6286 30.2949 36.7179 30.2738 36.8048C30.237 36.9521 30.1001 37.0495 29.9449 37.0311C26.061 36.5916 18.3747 35.818 17.0721 36.0443C16.7511 36.0995 16.5301 36.239 16.3959 36.4653C16.1064 36.9574 16.2933 37.8047 16.3959 38.1178Z" fill="#303030"/>
<path d="M20.6376 34.8996C20.806 34.8996 20.9402 34.7628 20.9402 34.597V21.8243C20.9402 21.6559 20.8034 21.5217 20.6376 21.5217C20.4692 21.5217 20.335 21.6585 20.335 21.8243V34.597C20.335 34.7654 20.4718 34.8996 20.6376 34.8996Z" fill="#303030"/>
<path d="M15.1012 21.1743H26.1767C26.2741 21.1743 26.3662 21.127 26.4241 21.0454C26.482 20.9665 26.4951 20.8638 26.4635 20.7691L22.9164 10.6462C22.8743 10.5251 22.7586 10.4435 22.6296 10.4435H18.6483C18.5194 10.4435 18.4062 10.5251 18.3615 10.6462L14.8144 20.7691C14.7828 20.8612 14.796 20.9638 14.8539 21.0454C14.9118 21.127 15.0039 21.1743 15.1012 21.1743Z" fill="#303030"/>
<path d="M19.2667 23.7926C19.4351 23.7926 19.5693 23.6557 19.5693 23.49V21.8243C19.5693 21.6559 19.4325 21.5217 19.2667 21.5217C19.0983 21.5217 18.9641 21.6585 18.9641 21.8243V23.49C18.9641 23.6557 19.0983 23.7926 19.2667 23.7926Z" fill="#303030"/>
<path d="M23.1059 23.3715C23.9585 23.3715 24.6531 22.6769 24.6531 21.8243C24.6531 21.6559 24.5163 21.5217 24.3505 21.5217C24.1821 21.5217 24.0479 21.6585 24.0479 21.8243C24.0479 22.3427 23.6243 22.7663 23.1059 22.7663C22.5875 22.7663 22.1639 22.3427 22.1639 21.8243C22.1639 21.6559 22.027 21.5217 21.8612 21.5217C21.6928 21.5217 21.5586 21.6585 21.5586 21.8243C21.5586 22.6769 22.2533 23.3715 23.1059 23.3715Z" fill="#303030"/>
</svg>
