<svg width="20" height="20" viewBox="0 0 20 20" fill="none" xmlns="http://www.w3.org/2000/svg">
<path fill-rule="evenodd" clip-rule="evenodd" d="M2.17242 3.4524C2.17242 3.31032 2.22887 3.17406 2.32933 3.07359C2.4298 2.97313 2.56606 2.91669 2.70814 2.91669H4.31528C4.43478 2.91672 4.55084 2.95671 4.64499 3.03028C4.73915 3.10386 4.80601 3.20681 4.83492 3.32276L5.26885 5.05954H17.7081C17.7895 5.05957 17.8698 5.07813 17.9429 5.11382C18.0161 5.1495 18.0801 5.20138 18.1302 5.26552C18.1803 5.32965 18.2151 5.40435 18.232 5.48395C18.2489 5.56354 18.2475 5.64595 18.2278 5.7249L16.6206 12.1535C16.5917 12.2694 16.5249 12.3724 16.4307 12.4459C16.3365 12.5195 16.2205 12.5595 16.101 12.5595H6.45814C6.33864 12.5595 6.22258 12.5195 6.12843 12.4459C6.03427 12.3724 5.96741 12.2694 5.9385 12.1535L3.89742 3.98812H2.70814C2.56606 3.98812 2.4298 3.93167 2.32933 3.83121C2.22887 3.73074 2.17242 3.59448 2.17242 3.4524ZM5.53671 6.13097L6.876 11.4881H15.6831L17.0224 6.13097H5.53671ZM7.52957 14.7024C7.24541 14.7024 6.97288 14.8153 6.77195 15.0162C6.57102 15.2171 6.45814 15.4897 6.45814 15.7738C6.45814 16.058 6.57102 16.3305 6.77195 16.5314C6.97288 16.7324 7.24541 16.8453 7.52957 16.8453C7.81373 16.8453 8.08625 16.7324 8.28718 16.5314C8.48811 16.3305 8.601 16.058 8.601 15.7738C8.601 15.4897 8.48811 15.2171 8.28718 15.0162C8.08625 14.8153 7.81373 14.7024 7.52957 14.7024ZM5.38671 15.7738C5.38671 15.2055 5.61247 14.6605 6.01434 14.2586C6.4162 13.8567 6.96125 13.631 7.52957 13.631C8.09789 13.631 8.64293 13.8567 9.0448 14.2586C9.44666 14.6605 9.67242 15.2055 9.67242 15.7738C9.67242 16.3422 9.44666 16.8872 9.0448 17.2891C8.64293 17.6909 8.09789 17.9167 7.52957 17.9167C6.96125 17.9167 6.4162 17.6909 6.01434 17.2891C5.61247 16.8872 5.38671 16.3422 5.38671 15.7738ZM15.0296 14.7024C14.7454 14.7024 14.4729 14.8153 14.272 15.0162C14.071 15.2171 13.9581 15.4897 13.9581 15.7738C13.9581 16.058 14.071 16.3305 14.272 16.5314C14.4729 16.7324 14.7454 16.8453 15.0296 16.8453C15.3137 16.8453 15.5862 16.7324 15.7872 16.5314C15.9881 16.3305 16.101 16.058 16.101 15.7738C16.101 15.4897 15.9881 15.2171 15.7872 15.0162C15.5862 14.8153 15.3137 14.7024 15.0296 14.7024ZM12.8867 15.7738C12.8867 15.2055 13.1125 14.6605 13.5143 14.2586C13.9162 13.8567 14.4612 13.631 15.0296 13.631C15.5979 13.631 16.1429 13.8567 16.5448 14.2586C16.9467 14.6605 17.1724 15.2055 17.1724 15.7738C17.1724 16.3422 16.9467 16.8872 16.5448 17.2891C16.1429 17.6909 15.5979 17.9167 15.0296 17.9167C14.4612 17.9167 13.9162 17.6909 13.5143 17.2891C13.1125 16.8872 12.8867 16.3422 12.8867 15.7738Z" fill="#242424"/>
</svg>
