<svg width="201" height="181" viewBox="0 0 201 181" fill="none" xmlns="http://www.w3.org/2000/svg">
<path d="M96.2582 117.128C97.5727 116.987 98.7303 116.867 99.873 116.733C103.085 116.352 106.296 116.329 109.515 116.553C114.049 116.874 118.53 117.584 122.959 118.592C123.086 118.622 123.22 118.645 123.347 118.674C123.668 118.764 123.818 118.637 123.907 118.316C124.146 117.479 124.43 116.658 124.699 115.829C126.947 108.943 131.51 104.2 138.053 101.22C142.295 99.2857 146.717 98.6509 151.325 98.9645C152.191 99.0243 153.043 99.1438 153.939 99.323C154.043 98.2401 154.17 97.1945 154.238 96.1489C154.529 91.6602 155.784 87.4403 157.711 83.3998C158.174 82.4214 158.607 81.4355 158.98 80.4123C160.22 76.9842 160.138 73.571 158.801 70.2101C157.994 68.1861 156.583 66.5728 155.022 65.094C152.475 62.6891 149.338 61.4119 146.067 60.4037C143.356 59.5672 140.562 59.1713 137.762 58.8352C135.118 58.5216 132.474 58.1929 129.823 57.9465C127.746 57.7523 125.662 57.6253 123.586 57.5656C118.836 57.4237 114.086 57.4237 109.336 57.573C106.087 57.6701 102.846 57.9017 99.7087 58.8203C97.3187 59.5224 95.0034 60.4261 93.1288 62.1439C89.7604 65.2135 88.0949 69.03 88.192 73.6083C88.2667 77.1335 89.1704 80.487 90.2459 83.8106C90.9554 86.0213 91.8068 88.1798 92.2998 90.4577C92.6433 92.056 92.957 93.6618 93.0392 95.2974C93.0541 95.5588 93.0541 95.8277 93.0317 96.0891C93.0018 96.4476 92.8076 96.6791 92.4342 96.7165C92.0682 96.7538 91.7919 96.5522 91.7247 96.1339C91.6276 95.5065 91.6052 94.8717 91.5081 94.2443C91.0898 91.4959 90.3579 88.8295 89.4318 86.2155C88.3563 83.1757 87.4302 80.0986 86.9223 76.9095C86.1979 72.376 86.7505 68.074 89.3422 64.1604C90.9703 61.6958 93.1139 59.8659 95.8026 58.6261C98.82 57.2369 101.994 56.5498 105.28 56.2884C111.629 55.7805 117.992 55.8776 124.348 56.0718C130.263 56.2511 136.126 57.0129 141.974 57.8792C145.357 58.3797 148.599 59.4253 151.668 60.9265C154.775 62.4501 157.27 64.6982 159.152 67.5811C160.974 70.3744 161.587 73.4963 161.348 76.8049C161.199 78.9709 160.511 80.9799 159.63 82.9442C159.122 84.072 158.637 85.2147 158.136 86.3499C156.665 89.6511 156.053 93.139 155.746 96.709C155.672 97.5754 155.634 98.4492 155.552 99.3156C155.515 99.7189 155.649 99.9355 156.038 100.085C156.874 100.406 157.643 100.877 158.398 101.362C161.012 103.042 163.23 107.128 161.512 111.437C160.885 113.021 159.974 114.44 158.823 115.702C158.57 115.986 158.42 116.292 158.301 116.65C157.277 119.728 156.224 122.797 155.194 125.867C153.7 130.318 152.117 134.74 150.922 139.281C150.234 141.91 149.644 144.561 149.129 147.227C148.599 149.991 148.726 152.724 149.293 155.473C149.883 158.341 150.346 161.231 150.503 164.166C150.541 164.928 150.541 165.697 150.346 166.452C150.13 167.281 149.779 168.02 148.86 168.222C147.934 168.431 147.225 167.968 146.642 167.296C146.209 166.788 145.932 166.19 145.716 165.563C145.036 163.636 144.708 161.634 144.334 159.64C144.2 158.916 144.073 158.184 143.811 157.489C143.505 156.66 143.139 156.474 142.288 156.698C141.698 156.854 141.153 157.131 140.63 157.437C137.68 159.14 134.617 160.611 131.466 161.903C131.249 161.993 131.032 162.105 130.786 162.097C130.495 162.09 130.286 161.963 130.166 161.694C130.047 161.418 130.121 161.164 130.33 160.977C130.487 160.843 130.674 160.738 130.868 160.656C134.102 159.229 137.231 157.586 140.323 155.869C140.876 155.562 141.459 155.316 142.079 155.166C143.475 154.838 144.521 155.346 145.118 156.645C145.559 157.616 145.716 158.662 145.903 159.7C146.209 161.358 146.5 163.024 147.015 164.637C147.172 165.137 147.352 165.638 147.643 166.086C147.792 166.31 147.949 166.519 148.195 166.638C148.42 166.75 148.606 166.713 148.718 166.474C148.868 166.16 148.92 165.824 148.942 165.473C149.032 164.069 148.868 162.68 148.688 161.291C148.39 158.961 147.986 156.645 147.531 154.345C147.068 152.007 147.165 149.677 147.561 147.347C148.659 140.961 150.503 134.777 152.624 128.66C153.685 125.598 154.716 122.521 155.761 119.451C155.843 119.212 155.918 118.973 156 118.734C155.814 118.674 155.739 118.749 155.657 118.816C152.639 121.049 149.271 122.603 145.798 123.962C144.543 124.455 143.266 124.881 141.959 125.187C141.436 125.307 141.182 125.561 141.04 126.091C139.129 133.141 136.948 140.117 134.812 147.1C134.349 148.616 133.811 150.103 133.191 151.559C132.033 154.293 130.323 156.586 127.858 158.288C127.291 158.677 126.738 159.088 126.252 159.573C125.804 160.029 125.423 160.529 125.199 161.141C125.035 161.597 125.095 161.687 125.58 161.746C126.238 161.829 126.88 161.97 127.492 162.224C128.986 162.844 129.785 163.95 129.793 165.585C129.8 166.691 129.8 167.804 129.793 168.909C129.763 171.867 129.561 174.817 129.135 177.744C129.046 178.372 128.911 178.992 128.642 179.567C128.052 180.807 126.805 180.896 126.028 179.761C125.722 179.32 125.58 178.812 125.468 178.29C125.095 176.579 124.99 174.839 124.878 173.106C124.677 169.999 124.385 166.9 124.034 163.808C123.975 163.248 123.967 163.233 123.399 163.285C121.771 163.442 120.165 163.763 118.552 164.032C115.079 164.607 111.584 164.801 108.066 164.667C106.587 164.607 105.116 164.54 103.637 164.495C101.023 164.405 98.4391 164.039 95.8549 163.629C92.2624 163.061 88.6625 162.493 85.1298 161.627C81.4179 160.723 77.7283 159.707 74.1434 158.371C73.4264 158.102 73.5235 158.005 73.1426 158.751C72.0372 160.94 70.9692 163.151 69.8788 165.346C69.1842 166.743 68.4298 168.102 67.6232 169.432C67.1975 170.134 66.7494 170.821 66.1444 171.381C65.6067 171.881 64.9942 172.27 64.2175 171.934C63.4183 171.583 63.2465 170.881 63.269 170.096C63.2914 169.163 63.5154 168.267 63.8142 167.393C64.7851 164.547 65.9652 161.776 67.0855 158.99C67.556 157.818 68.034 156.645 68.4522 155.45C69.2588 153.135 69.2813 150.805 68.7211 148.437C68.1161 145.92 67.2498 143.485 66.5029 141.013C65.5544 137.854 64.7552 134.657 64.2996 131.386C64.1054 129.975 63.9785 128.556 63.9337 127.129C63.8665 125.068 63.4407 123.118 62.5295 121.251C61.7229 119.593 60.9238 117.928 60.4981 116.113C60.1022 114.402 59.9977 112.685 60.2217 110.929C60.7221 106.911 63.8739 104.671 67.1527 104.335C67.6456 104.282 68.0564 104.14 68.4522 103.857C72.5525 100.974 77.0786 99.1214 82.0378 98.3521C84.1813 98.016 86.3398 97.8816 88.5057 98.1281C92.3819 98.5762 95.0707 100.66 96.7063 104.155C97.864 106.612 98.1254 109.212 97.8714 111.885C97.6698 113.663 97.2142 115.381 96.2582 117.128ZM141.765 123.581C142.034 123.619 142.206 123.551 142.385 123.507C143.714 123.163 144.991 122.67 146.261 122.147C150.182 120.534 153.946 118.66 156.956 115.545C158.233 114.216 159.301 112.759 160.018 111.064C161.348 107.905 160.257 104.394 157.389 102.512C155.985 101.586 154.462 100.906 152.804 100.652C150.182 100.257 147.546 100.324 144.917 100.697C142.056 101.101 139.412 102.124 136.888 103.483C132.422 105.881 129.031 109.301 127.014 114.014C125.827 116.792 125.005 119.675 124.363 122.618C123.37 127.181 122.391 131.745 121.054 136.218C120.494 138.093 119.814 139.923 118.926 141.663C116.917 145.584 113.795 148.094 109.455 149.012C107.797 149.363 106.109 149.483 104.421 149.505C99.3652 149.565 94.3611 149.102 89.4019 148.116C86.8551 147.608 84.3904 146.839 82.105 145.599C79.1399 143.986 76.9217 141.708 75.9657 138.392C75.3832 136.39 75.0247 134.329 74.9276 132.238C74.7707 128.787 74.5542 125.337 74.5915 121.871C74.5915 121.699 74.6587 121.505 74.472 121.326C74.2554 121.326 74.121 121.505 73.9492 121.61C73.389 121.961 72.7841 122.222 72.1194 122.327C70.4314 122.581 68.9153 122.11 67.5784 121.124C62.8134 117.629 62.3802 110.847 65.2183 106.807C65.3154 106.672 65.4946 106.568 65.4199 106.276C63.7096 107.016 62.4847 108.159 61.9694 109.951C61.4466 111.766 61.5213 113.603 61.9022 115.433C62.2681 117.211 63.0374 118.831 63.8366 120.437C64.9046 122.588 65.3901 124.851 65.4498 127.226C65.4872 128.675 65.6365 130.124 65.8531 131.558C66.3311 134.717 67.1153 137.809 68.0489 140.864C68.8182 143.388 69.7294 145.868 70.2671 148.452C70.5659 149.879 70.7302 151.313 70.5733 152.777C70.3866 154.532 69.819 156.167 69.1842 157.788C68.034 160.708 66.8614 163.614 65.7037 166.534C65.3602 167.393 65.0689 168.267 64.8971 169.178C64.8299 169.544 64.7328 169.917 64.8747 170.313C65.2332 170.171 65.3751 169.902 65.5544 169.678C66.1444 168.931 66.6075 168.095 67.078 167.273C68.5045 164.771 69.6995 162.157 70.9692 159.573C71.3501 158.789 71.7534 158.02 72.1716 157.258C72.5974 156.488 72.9559 156.384 73.8073 156.698C74.3525 156.899 74.8977 157.101 75.4429 157.28C78.3781 158.244 81.3357 159.11 84.3381 159.812C91.7172 161.53 99.1635 162.867 106.774 163.068C109.814 163.151 112.846 163.203 115.864 162.814C118.351 162.493 120.815 162.075 123.295 161.717C123.586 161.672 123.691 161.537 123.743 161.268C123.967 160.021 124.669 159.05 125.565 158.191C126.126 157.661 126.738 157.205 127.358 156.757C129.21 155.398 130.562 153.635 131.525 151.567C132.265 149.983 132.847 148.348 133.355 146.682C135.2 140.632 137.097 134.59 138.8 128.496C139.046 127.607 139.3 126.726 139.554 125.822C139.136 125.688 138.777 125.8 138.419 125.844C136.97 126.031 135.514 126.121 134.087 125.755C130.562 124.844 128.665 122.842 128.254 119.668C127.911 116.987 128.209 114.328 129.404 111.863C130.696 109.182 132.765 107.516 135.857 107.329C140.092 107.076 142.191 109.637 142.84 112.423C143.02 113.192 143.087 113.984 143.102 114.776C143.154 117.36 142.616 119.862 142.019 122.349C141.907 122.767 141.743 123.133 141.765 123.581ZM123.377 120.123C123.063 120.049 122.809 119.989 122.555 119.937C119.941 119.429 117.312 119.018 114.683 118.615C108.559 117.674 102.442 117.718 96.3254 118.674C95.9594 118.734 95.7055 118.869 95.4814 119.175C93.7487 121.49 91.7172 123.514 89.372 125.217C87.4601 126.599 85.451 127.794 83.2029 128.541C82.5457 128.757 81.8735 128.869 81.1789 128.824C79.7598 128.727 79.0055 127.652 79.4088 126.285C79.5432 125.822 79.7822 125.411 80.0735 125.03C80.671 124.246 81.388 123.596 82.1797 123.014C85.5854 120.519 89.4019 118.891 93.4574 117.808C94.2043 117.606 94.6225 117.233 94.9661 116.591C96.1611 114.38 96.4225 111.99 96.3777 109.533C96.3478 107.852 95.9818 106.239 95.2574 104.715C93.9578 101.989 91.9114 100.212 88.8716 99.7189C87.3256 99.465 85.7721 99.4874 84.2186 99.6293C79.3192 100.062 74.7932 101.579 70.6406 104.223C70.4986 104.312 70.3194 104.364 70.2671 104.551C70.3194 104.596 70.3343 104.626 70.3567 104.633C70.5285 104.701 70.7003 104.76 70.8721 104.827C72.7318 105.537 74.2405 106.71 75.2936 108.383C77.2055 111.415 77.6985 114.671 76.4661 118.069C76.1002 119.078 76.0404 120.056 76.0554 121.087C76.0852 124.254 76.2346 127.413 76.3466 130.58C76.4213 132.693 76.6977 134.777 77.1084 136.853C77.7433 140.072 79.5806 142.395 82.3515 144.031C83.905 144.942 85.563 145.622 87.3032 146.085C90.4998 146.929 93.7562 147.429 97.0424 147.72C100.515 148.034 103.996 148.168 107.469 147.817C112.211 147.339 115.662 145.002 117.753 140.692C118.478 139.191 119.083 137.645 119.561 136.054C121.114 130.841 122.182 125.508 123.377 120.123ZM141.601 115.269C141.631 114.529 141.541 113.79 141.406 113.065C141.093 111.325 140.241 109.929 138.568 109.241C136.843 108.532 133.811 108.577 132.018 110.653C131.376 111.4 130.823 112.192 130.48 113.118C129.785 114.948 129.546 116.86 129.643 118.786C129.793 121.766 131.391 123.738 134.849 124.41C136.462 124.724 138.046 124.418 139.636 124.194C139.958 124.149 140.062 123.932 140.129 123.656C140.286 123.044 140.45 122.431 140.592 121.819C141.115 119.66 141.541 117.494 141.601 115.269ZM75.5848 114.611C75.5774 112.834 75.1591 111.273 74.36 109.809C73.1949 107.695 71.4472 106.388 69.0647 105.918C68.512 105.806 68.1236 105.94 67.7128 106.321C65.2332 108.629 64.5909 111.504 65.2033 114.709C65.6067 116.822 66.6896 118.577 68.4373 119.892C69.1991 120.459 70.0655 120.796 70.9916 120.87C72.5974 121.005 73.7027 120.168 74.4645 118.831C75.2114 117.487 75.5251 116.023 75.5848 114.611ZM93.1886 119.526C93.0915 119.451 92.9869 119.474 92.8898 119.503C89.275 120.586 85.8767 122.118 82.8369 124.381C82.2843 124.791 81.7913 125.262 81.3581 125.8C81.1565 126.046 80.9847 126.315 80.8727 126.614C80.7158 127.062 80.8353 127.263 81.3059 127.323C81.515 127.346 81.7241 127.323 81.9332 127.293C82.6203 127.204 83.2627 126.95 83.89 126.673C87.4451 125.09 90.4475 122.775 93.0093 119.854C93.084 119.757 93.1811 119.668 93.1886 119.526ZM127.268 178.685C127.552 178.118 127.582 177.543 127.664 176.975C128.037 174.413 128.142 171.837 128.247 169.252C128.299 168.013 128.306 166.773 128.314 165.541C128.314 165.122 128.306 164.689 127.948 164.375C127.41 163.897 126.805 163.531 126.088 163.39C125.55 163.285 125.498 163.322 125.565 163.882C125.939 167.236 126.223 170.597 126.454 173.958C126.536 175.19 126.633 176.43 126.88 177.647C126.947 177.991 126.969 178.372 127.268 178.685Z" fill="#303030"/>
<path d="M31.1013 111.348C30.937 110.661 30.474 110.212 29.8989 109.869C29.3985 109.563 28.8308 109.436 28.2558 109.324C26.9338 109.07 25.5894 108.988 24.2451 108.883C21.3024 108.651 18.3523 108.457 15.4096 108.218C14.1997 108.121 12.9972 107.957 11.8321 107.591C10.9358 107.315 10.1218 106.896 9.4197 106.276C8.26952 105.268 7.91102 104.043 8.38155 102.564C8.92677 100.832 10.0695 99.6069 11.5707 98.6807C13.7964 97.299 16.2386 96.5074 18.8004 96.0069C22.6318 95.2601 26.5006 95.1406 30.3843 95.1555C36.2995 95.1779 42.1177 95.9099 47.8312 97.4409C49.2353 97.8144 50.617 98.2476 51.9016 98.9496C52.5066 99.2782 53.0892 99.6442 53.6045 100.1C55.7182 101.952 56.0244 104.91 54.2991 107.143C53.4775 108.203 52.417 108.98 51.2593 109.637C49.5415 110.608 47.6594 111.139 45.7474 111.527C41.8413 112.326 37.8829 112.759 33.8946 112.938C33.8125 112.938 33.7378 112.946 33.6556 112.946C33.327 112.924 33.1776 113.028 33.2374 113.402C33.3046 113.842 33.3046 114.298 33.3494 114.738C33.566 116.874 33.3793 119.011 33.2448 121.139C33.0955 123.402 32.9237 125.665 32.8042 127.928C32.5353 133.119 32.5652 138.317 32.5204 143.515C32.5204 143.754 32.5278 143.993 32.4905 144.225C32.4158 144.636 32.0797 144.905 31.7138 144.875C31.3627 144.852 31.1163 144.606 31.049 144.202C31.0266 144.075 31.0266 143.941 31.0266 143.807C31.0864 138.691 31.0042 133.567 31.2656 128.451C31.4075 125.71 31.6391 122.976 31.8034 120.235C31.9304 117.995 32.0125 115.754 31.7362 113.514C31.6914 113.177 31.6615 112.916 31.2059 112.901C28.913 112.856 26.6201 112.826 24.3422 113.252C21.9821 113.7 20.0999 114.933 18.5689 116.74C16.8361 118.794 15.5739 121.139 14.4088 123.537C12.4221 127.614 10.8089 131.864 8.92677 135.987C8.06787 137.884 7.25378 139.803 6.41729 141.708C6.2231 142.156 5.92435 142.32 5.56585 142.201C5.22976 142.089 5.04305 141.715 5.14761 141.282C5.22229 140.976 5.35673 140.685 5.46876 140.393C7.05959 136.316 8.93424 132.357 10.6147 128.309C11.7201 125.65 12.9151 123.036 14.2744 120.504C15.0884 118.988 16.0071 117.547 17.0676 116.195C19.3232 113.297 22.2883 111.766 25.9405 111.49C27.4417 111.378 28.9429 111.303 30.4441 111.363C30.6532 111.422 30.8623 111.46 31.1013 111.348ZM29.8989 96.6717C24.8948 96.6642 22.2435 96.8808 18.5315 97.6127C16.3432 98.0459 14.2669 98.7928 12.3549 99.9654C11.2794 100.63 10.3906 101.474 9.92757 102.691C9.44211 103.954 9.68111 104.708 10.8089 105.47C11.6827 106.06 12.6761 106.321 13.6918 106.486C15.9623 106.851 18.2552 106.919 20.5481 107.113C22.9903 107.315 25.4475 107.412 27.8823 107.733C30.0856 108.024 31.9005 108.831 32.6996 111.109C32.7967 111.378 32.9909 111.46 33.2523 111.445C33.5137 111.43 33.7826 111.43 34.044 111.422C36.658 111.355 39.2497 111.034 41.8413 110.69C44.0147 110.399 46.1657 110.003 48.2495 109.316C49.9523 108.756 51.5058 107.942 52.7606 106.635C53.836 105.507 54.1945 104.193 53.6643 102.699C53.3282 101.758 52.6112 101.138 51.7896 100.63C50.5946 99.8832 49.2801 99.4127 47.9283 99.0392C41.916 97.3812 35.7842 96.6268 29.8989 96.6717Z" fill="#303030"/>
<path d="M55.2178 141.095C55.2327 141.551 55.0386 141.85 54.7099 141.947C54.3664 142.044 54.0452 141.91 53.851 141.551C53.7689 141.394 53.7166 141.207 53.6718 141.028C51.9465 134.418 49.9673 127.883 48.3167 121.251C47.7491 118.973 47.2039 116.688 46.6587 114.41C46.6363 114.305 46.6064 114.201 46.5989 114.096C46.5691 113.67 46.7483 113.372 47.0844 113.304C47.4504 113.23 47.7043 113.409 47.8462 113.723C47.9433 113.939 47.9956 114.171 48.0553 114.402C49.5491 119.869 50.886 125.381 52.4469 130.833C53.3581 134.03 54.2021 137.242 55.0759 140.446C55.1282 140.685 55.173 140.916 55.2178 141.095Z" fill="#303030"/>
<path d="M127.358 12.5219C127.35 12.6115 127.335 12.6936 127.35 12.7609C127.746 14.628 127.806 16.5251 127.911 18.4221C128.045 20.8943 127.791 23.3216 127.395 25.7415C127.074 27.6983 126.305 29.4833 124.908 30.9471C124.781 31.0816 124.669 31.2384 124.52 31.343C123.25 32.2318 121.913 32.8965 120.322 33.016C117.873 33.1952 115.565 32.7247 113.302 31.7986C110.531 30.6559 107.969 29.1547 105.534 27.4219C104.72 26.8468 104.011 26.1298 103.234 25.4576C102.778 25.6742 102.397 26.0029 102.017 26.3315C100.978 27.2277 99.8432 27.997 98.7453 28.8111C97.4756 29.7522 96.2283 30.7156 94.8914 31.582C93.9205 32.2094 92.9271 32.8143 92.0085 33.5238C91.7994 33.6882 91.5678 33.8077 91.284 33.8077C90.7089 33.8077 90.4251 33.3595 90.6641 32.8367C90.7836 32.5753 91.0002 32.4409 91.2318 32.3064C92.7628 31.3729 94.2043 30.3048 95.6009 29.192C96.3403 28.602 97.1544 28.109 97.9162 27.5414C99.2009 26.5705 100.411 25.5099 101.755 24.6212C101.86 24.5465 101.957 24.4494 102.046 24.3598C102.173 24.2328 102.203 24.1208 102.061 23.9564C101.464 23.2394 101.113 22.388 100.777 21.5216C100.246 20.1623 100.329 18.8254 100.837 17.511C101.247 16.4429 101.882 15.5093 102.689 14.6878C103.951 13.3882 105.445 12.4024 107.028 11.5584C108.328 10.8638 109.687 10.2887 111.031 9.68376C112.361 9.08627 113.757 8.71283 115.124 8.24977C115.864 7.99584 116.67 7.92115 117.469 8.11534C118.582 8.39168 119.06 9.21324 118.746 10.3186C118.44 11.3941 117.708 12.2082 117.036 13.0447C116.551 13.6646 115.976 14.2173 115.415 14.7625C113.899 16.2338 112.383 17.6902 110.785 19.0719C108.992 20.6179 107.185 22.1565 105.377 23.695C105.101 23.934 104.787 24.1357 104.474 24.3747C105.609 25.6444 106.946 26.6153 108.365 27.4667C109.358 28.0642 110.344 28.6692 111.382 29.2069C113.033 30.0509 114.736 30.7455 116.528 31.2235C118.164 31.6567 119.807 31.7089 121.45 31.2534C123.123 30.7903 124.214 29.6775 124.968 28.1763C125.64 26.8394 125.954 25.3904 126.118 23.9191C126.417 21.2677 126.536 18.6163 126.2 15.95C126.073 14.9567 126.051 13.9484 125.834 12.97C125.737 12.5069 125.61 12.0513 125.513 11.5883C125.468 11.3493 125.311 11.2298 125.125 11.1178C123.967 10.4306 122.884 9.63895 121.794 8.84727C120.98 8.24977 120.24 7.56265 119.613 6.79338C118.254 5.10545 118.38 3.186 120.053 1.64745C121.614 0.205988 123.437 -0.384039 125.521 0.258269C127.194 0.773609 128.389 1.81923 128.769 3.59678C128.956 4.48555 128.829 5.37433 128.575 6.25563C128.247 7.41328 127.657 8.43649 127.074 9.46717C126.678 10.1692 126.671 10.1692 127.38 10.6099C129.285 11.7899 131.294 12.7982 133.266 13.8513C135.036 14.7924 136.828 15.6886 138.576 16.667C141.892 18.5118 145.186 20.4088 148.494 22.261C151.668 24.0386 154.865 25.7713 158.039 27.5564C159.623 28.4526 161.176 29.4011 162.722 30.3496C166.695 32.7994 170.744 35.1296 174.911 37.2358C177.876 38.737 180.931 40.0515 184.12 41.0075C185.614 41.4556 185.576 41.59 185.666 39.8946C185.748 38.3337 186.159 36.8325 187.167 35.6375C188.541 34.0018 190.834 33.8077 192.298 35.8018C194.501 38.7967 192.261 42.0456 189.886 42.7402C189.087 42.9717 188.302 43.1286 187.481 43.1211C187.1 43.1136 186.966 43.2556 186.98 43.629C187.033 45.0256 187.063 46.4223 187.1 47.8189C187.107 48.0056 187.137 48.1849 187.137 48.3716C187.16 51.3217 187.16 54.2794 187.212 57.2295C187.279 60.8966 187.287 64.5637 187.331 68.2234C187.346 69.5155 187.339 70.8076 187.369 72.0922C187.414 74.1984 187.376 76.312 187.503 78.4182C187.6 80.1061 187.533 81.794 187.653 83.4745C187.78 85.1624 187.697 86.8503 187.809 88.5308C187.914 90.0395 187.817 91.5332 187.809 93.0344C187.802 95.1705 187.675 97.3065 187.668 99.4351C187.668 101.332 187.503 103.229 187.518 105.119C187.541 107.046 187.361 108.965 187.361 110.885C187.361 112.311 187.205 113.723 187.175 115.142C187.1 117.965 186.809 120.773 186.585 123.581C186.42 125.68 186.039 127.764 185.599 129.833C185.345 131.028 185.083 130.871 186.42 131.237C188.668 131.849 190.834 132.671 192.806 133.933C193.65 134.471 194.457 135.068 195.248 135.681C196.458 136.622 197.638 137.593 198.721 138.676C199.58 139.527 200.394 140.446 200.85 141.596C201.186 142.447 200.969 142.791 200.081 143.022C198.729 143.373 197.347 143.56 195.965 143.762C192.276 144.292 188.564 144.456 184.859 144.725C184.284 144.77 183.702 144.778 183.119 144.792C180.826 144.86 178.533 144.964 176.24 145.017C174.47 145.054 172.715 144.912 170.953 144.875C168.115 144.815 165.351 144.232 162.558 143.874C162.14 143.822 161.729 143.71 161.348 143.515C161.004 143.344 160.87 143.022 160.96 142.656C161.049 142.305 161.288 142.119 161.647 142.111C161.856 142.111 162.072 142.134 162.274 142.178C165.598 142.963 168.988 143.276 172.387 143.426C176.076 143.583 179.766 143.433 183.455 143.202C183.986 143.172 184.508 143.142 185.039 143.134C187.175 143.119 189.303 142.903 191.424 142.701C193.68 142.485 195.95 142.388 198.183 141.954C198.482 141.895 198.788 141.827 199.154 141.745C198.818 141.133 198.46 140.617 198.019 140.169C195.696 137.757 193.09 135.725 190.095 134.209C188.631 133.47 187.085 132.947 185.502 132.529C185.031 132.409 184.919 132.589 184.777 132.955C184.232 134.359 183.597 135.711 182.686 136.928C181.64 138.31 180.401 139.46 178.959 140.416C177.682 141.26 176.248 141.596 174.799 141.783C173.313 141.977 171.871 141.566 170.669 140.707C169.496 139.863 168.869 138.661 169.22 137.13C169.407 136.323 169.705 135.569 170.213 134.911C171.012 133.881 171.939 133.029 173.096 132.372C175.748 130.856 178.608 130.341 181.61 130.415C182.163 130.43 182.716 130.52 183.261 130.572C183.873 130.632 183.881 130.632 184.038 130.004C184.366 128.697 184.568 127.375 184.717 126.031C184.904 124.276 185.225 122.528 185.307 120.766C185.427 118.241 185.733 115.724 185.741 113.192C185.741 111.878 185.942 110.556 185.92 109.241C185.89 107.031 186.144 104.82 186.054 102.609C186.032 101.952 186.122 101.295 186.144 100.63C186.211 98.0982 186.293 95.5663 186.323 93.0344C186.353 91.1075 186.398 89.1806 186.286 87.2611C186.196 85.5732 186.271 83.8853 186.136 82.2048C186.01 80.5692 186.077 78.9335 185.995 77.3053C185.815 73.8249 185.875 70.3445 185.815 66.8716C185.785 65.1314 185.868 63.3912 185.8 61.651C185.666 58.1705 185.741 54.6901 185.644 51.2097C185.569 48.6255 185.651 46.0414 185.554 43.4647C185.539 42.9941 185.39 42.8298 184.956 42.7402C181.603 42.0307 178.503 40.6415 175.419 39.1926C172.312 37.7287 169.332 36.0408 166.374 34.3081C163.506 32.6276 160.683 30.8799 157.808 29.2144C155.388 27.8178 152.923 26.4958 150.481 25.1365C148.502 24.0311 146.523 22.9258 144.551 21.8055C140.772 19.6545 136.992 17.496 133.124 15.5019C131.339 14.5832 129.584 13.6198 127.813 12.6936C127.664 12.6115 127.545 12.4995 127.358 12.5219ZM103.458 23.2021C103.607 23.0975 103.704 23.0527 103.779 22.9855C105.109 21.8279 106.483 20.7225 107.835 19.5798C109.343 18.3026 110.792 16.9508 112.271 15.6513C113.444 14.6206 114.549 13.5301 115.572 12.365C116.147 11.7153 116.7 11.0356 117.096 10.2589C117.357 9.75098 117.253 9.57173 116.693 9.60161C116.005 9.63895 115.326 9.75845 114.676 9.97504C112.652 10.6547 110.695 11.4763 108.761 12.3949C106.782 13.3285 105.004 14.5309 103.488 16.0994C102.681 16.9433 102.091 17.9217 102.024 19.169C101.957 20.6926 102.435 21.9996 103.458 23.2021ZM183.358 132.208C181.259 131.842 179.295 131.834 177.308 132.342C175.815 132.723 174.366 133.201 173.133 134.135C172.08 134.934 171.132 135.852 170.781 137.219C170.505 138.302 170.938 139.221 171.953 139.669C174.694 140.894 177.055 139.96 179.235 138.317C180.244 137.555 181.043 136.555 181.752 135.494C182.432 134.478 182.888 133.373 183.358 132.208ZM127.365 4.73949C127.283 3.38765 126.716 2.26735 125.409 1.76695C124.311 1.3487 123.295 1.54288 122.264 1.93126C121.383 2.26735 120.8 2.91713 120.397 3.76109C120.151 4.2839 120.165 4.79177 120.472 5.26976C120.77 5.73282 121.077 6.18841 121.48 6.57679C122.548 7.6 123.758 8.43649 125.02 9.20577C125.356 9.40742 125.55 9.34767 125.715 9.03399C126.208 8.10787 126.783 7.21909 127.067 6.18841C127.208 5.71042 127.343 5.22495 127.365 4.73949ZM187.899 41.4929C188.078 41.4705 188.37 41.4407 188.653 41.4108C189.893 41.2838 190.745 40.5892 191.32 39.5361C192.052 38.2067 191.484 36.5711 190.147 35.996C189.804 35.8466 189.497 35.8541 189.154 35.9885C188.482 36.2574 188.153 36.825 187.877 37.43C187.391 38.498 187.19 39.6407 187.107 40.8058C187.063 41.478 187.1 41.5079 187.899 41.4929Z" fill="#303030"/>
<path d="M103.025 42.1502C103.002 41.7394 103.122 41.5303 103.219 41.3212C104.668 38.2814 106.147 35.2566 107.782 32.3139C107.857 32.1795 107.924 32.0301 108.014 31.9031C108.223 31.6044 108.507 31.5073 108.843 31.6567C109.149 31.7911 109.358 32.1944 109.239 32.5081C109.037 33.0234 108.798 33.5238 108.544 34.0093C107.26 36.459 106.117 38.9685 104.922 41.4631C104.75 41.8141 104.616 42.2025 104.317 42.4713C104.078 42.6954 103.794 42.8224 103.451 42.6879C103.122 42.561 103.04 42.2921 103.025 42.1502Z" fill="#303030"/>
<path d="M115.393 44.3162C115.617 41.2689 115.841 38.3487 116.446 35.4807C116.476 35.3537 116.483 35.2193 116.528 35.0923C116.678 34.6517 116.984 34.4425 117.342 34.5172C117.708 34.5994 117.888 34.9056 117.828 35.3761C117.746 35.9736 117.596 36.5711 117.559 37.1761C117.41 39.5437 117.036 41.8888 116.932 44.2639C116.924 44.4207 116.932 44.585 116.887 44.7344C116.775 45.1228 116.476 45.2722 116.103 45.2796C115.752 45.2871 115.46 45.0257 115.393 44.6522C115.371 44.5029 115.393 44.346 115.393 44.3162Z" fill="#303030"/>
<path d="M67.0109 82.2123C66.152 81.0472 65.1661 80.024 63.9935 79.1949C60.7297 76.8871 57.2045 75.1618 53.2311 74.4224C50.3183 73.8847 47.4205 73.698 44.5301 74.5195C44.3508 74.5718 44.1716 74.6241 43.9923 74.6315C43.6786 74.639 43.4172 74.4971 43.3052 74.1984C43.1932 73.8996 43.2679 73.6233 43.4994 73.3992C43.6786 73.2274 43.8952 73.1453 44.1268 73.0855C46.106 72.5553 48.1076 72.3237 50.1615 72.488C55.5091 72.9063 60.3189 74.7436 64.6806 77.8356C66.2491 78.9485 67.5113 80.3526 68.6764 81.8687C68.7585 81.9733 68.8332 82.0853 68.893 82.2048C69.2589 82.9293 68.9901 83.5342 68.1984 83.6911C67.5038 83.8255 66.7943 83.9151 66.0847 83.9973C63.0823 84.3409 60.0799 84.3035 57.0775 84.0272C54.2991 83.7732 51.6029 83.1608 49.0486 82.048C45.6877 80.5841 42.8496 78.463 40.7957 75.371C40.6239 75.1095 40.4596 74.9452 40.1086 74.9676C38.6522 75.0573 37.2406 75.3635 35.844 75.7817C35.5079 75.8863 35.5079 76.1328 35.4855 76.3942C35.3511 77.7311 35.2091 79.068 35.0523 80.4049C34.9851 81.0098 34.888 81.6073 34.776 82.2048C34.7087 82.5708 34.7984 82.7202 35.2017 82.75C36.8074 82.8621 38.3908 83.1384 39.9592 83.5193C40.6015 83.6761 41.2289 83.8703 41.8339 84.1392C43.9699 85.1027 45.1276 86.701 45.0828 89.091C45.0604 90.5473 44.8214 91.9813 44.5525 93.4079C44.1044 95.7904 43.6786 98.1804 42.9617 100.503C42.7077 101.31 42.4239 102.101 41.9833 102.833C41.2289 104.066 40.146 104.842 38.6896 104.865C35.2614 104.917 31.8258 104.954 28.4201 104.417C27.7927 104.32 27.1878 104.148 26.5977 103.894C25.4177 103.394 24.6932 102.52 24.4243 101.265C24.1704 100.048 24.0509 98.8152 23.8791 97.5903C23.4385 94.4311 23.0277 91.2643 22.8335 88.0752C22.8111 87.7092 22.7887 87.3358 22.8111 86.9698C22.841 86.4918 23.0874 86.223 23.4609 86.2304C23.8268 86.2304 24.0808 86.4844 24.1181 86.9698C24.2302 88.4711 24.3945 89.9648 24.5887 91.4585C24.992 94.5207 25.3654 97.5829 25.821 100.63C25.9853 101.735 26.5828 102.385 27.6209 102.684C28.4873 102.938 29.3686 103.087 30.2649 103.162C32.7893 103.386 35.3286 103.341 37.8605 103.394C37.9651 103.394 38.0697 103.386 38.1742 103.394C39.5261 103.423 40.4148 102.766 40.9526 101.564C41.5799 100.16 41.9459 98.6733 42.2671 97.1721C42.7525 94.9016 43.238 92.6311 43.4919 90.3233C43.5367 89.9274 43.5741 89.5316 43.5741 89.1432C43.589 87.3657 42.8272 86.208 41.1916 85.4985C40.1908 85.0653 39.1302 84.8711 38.0697 84.6471C37.0315 84.4305 35.9784 84.3558 34.9328 84.2139C34.5071 84.1541 34.3876 84.3334 34.3054 84.6994C34.2009 85.2147 34.059 85.7226 33.9021 86.2304C33.693 86.8877 33.3569 87.4852 32.8938 88.008C32.2441 88.7549 31.4449 89.2179 30.4366 89.3001C29.5031 89.3822 28.5844 89.3075 27.7031 89.0237C26.8815 88.7549 26.187 88.2843 25.7762 87.4852C25.2086 86.3873 25.4401 85.2072 26.3886 84.4155C26.9637 83.9375 27.6284 83.6164 28.3305 83.3849C29.7421 82.9218 31.176 82.5932 32.6698 82.6006C33.0059 82.6006 33.2075 82.5334 33.2673 82.1525C33.5362 80.3824 33.7826 78.6049 33.9171 76.8124C33.9245 76.7078 33.9096 76.6033 33.8947 76.4763C33.5511 76.4091 33.2748 76.5883 32.9835 76.678C30.8922 77.3352 28.7786 77.873 26.5753 78.0447C24.5289 78.2016 22.5198 77.985 20.5107 77.6564C17.5531 77.1634 14.715 76.312 12.0188 74.9751C9.69608 73.8249 7.69446 72.2565 5.89451 70.4043C4.0348 68.4923 2.33941 66.4309 0.815794 64.2426C0.531984 63.8318 0.248173 63.4136 0.0913306 62.9281C-0.19248 62.0617 0.195892 61.4344 1.10707 61.3746C4.93105 61.1431 8.75502 61.0311 12.5715 61.4493C15.3648 61.7555 18.0834 62.2933 20.6975 63.3837C24.8426 65.1164 28.1886 67.7678 30.5636 71.5993C30.6308 71.7113 30.713 71.8159 30.7727 71.9354C30.9669 72.3237 31.2358 72.4432 31.6764 72.3312C32.2889 72.1818 32.9163 72.0698 33.5436 71.9876C33.9768 71.9354 34.1112 71.7337 34.0963 71.308C34.0291 69.7321 33.693 68.2309 32.9387 66.8268C32.1395 65.3554 31.0864 64.0708 30.0259 62.7937C27.733 60.0228 25.6866 57.0876 23.8268 54.0105C21.7207 50.5151 20.4585 46.7658 19.973 42.7178C19.6518 40.0664 19.383 37.4225 19.368 34.7487C19.368 34.4873 19.3456 34.2184 19.4353 33.9645C19.6369 33.3969 20.1747 33.1803 20.7049 33.4641C20.8394 33.5388 20.9663 33.6433 21.0858 33.7404C24.8725 36.9296 27.718 40.7984 29.5553 45.4065C30.6308 48.0953 31.2806 50.8811 31.7063 53.7341C31.7511 54.0478 31.7661 54.3615 31.9528 54.7275C32.1918 53.6893 32.4009 52.7184 32.6399 51.7549C33.9469 46.5418 36.1427 41.7618 39.6231 37.6167C41.2887 35.6375 43.2455 34.0093 45.501 32.7396C45.6354 32.6649 45.7773 32.5828 45.9193 32.5156C46.6587 32.1869 47.2263 32.4035 47.4952 33.1653C47.7491 33.8674 47.8163 34.6068 47.9283 35.3313C48.6379 40.0814 47.9731 44.6373 45.9417 48.9915C44.9409 51.1425 43.589 53.047 41.9384 54.7499C40.8032 55.9299 39.5858 57.0204 38.3759 58.1257C37.2705 59.1415 36.1502 60.1497 35.2166 61.3447C35.0224 61.5912 34.8581 61.8675 34.6639 62.1215C34.4847 62.368 34.4996 62.5771 34.6639 62.8385C35.3959 63.9961 36.1054 65.1687 36.8299 66.3413C36.8821 66.4235 36.9195 66.5355 37.0763 66.5579C37.2929 66.4757 37.3601 66.2293 37.4796 66.0351C39.6157 62.5547 42.3492 59.612 45.5159 57.0502C48.8096 54.3839 52.6112 52.8304 56.7339 52.0163C59.2957 51.5085 61.8948 51.2396 64.4864 50.9259C66.2715 50.7093 68.0341 50.4031 69.7967 50.0745C69.9759 50.0371 70.1626 49.9848 70.3419 49.9848C71.1112 49.9848 71.4846 50.6122 71.1112 51.2844C70.9693 51.5383 70.7825 51.7624 70.6108 51.9939C69.8938 52.9723 69.2515 54.0105 68.6465 55.0561C64.8972 61.5464 59.4003 65.9156 52.4096 68.4998C47.8462 70.1877 43.1334 71.3304 38.4132 72.4507C37.6439 72.6299 36.8672 72.7942 36.0979 72.9735C35.6573 73.0781 35.3809 73.6681 35.5751 74.0714C35.6647 74.2656 35.844 74.1984 35.9934 74.1685C36.4788 74.049 36.9643 73.9146 37.4498 73.81C38.4282 73.5934 39.429 73.5113 40.4298 73.444C41.0123 73.3992 41.438 73.6009 41.7443 74.1237C43.0139 76.3269 44.8587 77.9626 46.9798 79.307C49.7283 81.0546 52.7681 81.9733 55.9572 82.399C59.4525 82.8621 62.9554 82.8994 66.4507 82.4289C66.6449 82.3915 66.8167 82.4214 67.0109 82.2123ZM68.766 51.8819C68.5569 51.7773 68.3478 51.852 68.1536 51.8894C66.7495 52.1508 65.3379 52.3076 63.9263 52.4943C61.4467 52.823 58.9447 53.062 56.4949 53.5922C52.9174 54.369 49.6013 55.7432 46.7109 58.0286C43.5143 60.5531 40.7883 63.5032 38.6746 66.9985C38.458 67.357 38.2489 67.7305 38.0099 68.074C37.4199 68.9329 36.7029 68.9255 36.1502 68.0516C36.0232 67.85 35.9112 67.6409 35.7842 67.4392C34.9552 66.0948 34.1486 64.7281 33.2748 63.4061C32.8341 62.7414 32.8341 62.2036 33.2598 61.5315C34.1112 60.202 35.1643 59.0743 36.2996 58.0062C37.6439 56.7365 39.0331 55.5192 40.3401 54.2196C45.3516 49.223 47.2711 43.151 46.5242 36.1752C46.4495 35.503 46.4271 34.8159 46.1807 34.1661C45.8744 34.1661 45.6728 34.3603 45.4562 34.4948C43.7832 35.5329 42.3044 36.7951 41.0123 38.2814C37.6589 42.1502 35.5527 46.6463 34.2307 51.5533C33.581 53.9507 33.2299 56.4079 32.8192 58.8502C32.7743 59.1415 32.7146 59.4253 32.5802 59.6867C32.4233 59.9929 32.1694 60.1647 31.8109 60.1348C31.4897 60.1124 31.2731 59.9257 31.1686 59.6269C31.1163 59.4776 31.079 59.3207 31.0491 59.1713C30.8922 58.2378 30.7205 57.3042 30.5786 56.3631C30.2275 54.0404 29.9288 51.7101 29.3089 49.4396C27.8973 44.2937 25.455 39.7527 21.4518 36.1379C21.3099 36.0109 21.2128 35.7644 20.9215 35.8615C20.9215 36.2275 20.9066 36.5935 20.9215 36.9594C21.041 39.4913 21.3472 42.0083 21.773 44.5028C22.1837 46.9152 22.9306 49.2081 24.0957 51.3666C25.2982 53.5997 26.6201 55.7582 28.084 57.827C29.5703 59.9182 31.2507 61.8451 32.8042 63.8766C34.1038 65.572 35.1121 67.4093 35.4257 69.5603C35.493 70.001 35.5154 70.4491 35.5676 70.8972C35.6423 71.5171 35.6498 71.5246 36.2324 71.3976C36.8224 71.2706 37.4124 71.1287 38.0024 70.9868C42.7227 69.8665 47.4429 68.7313 51.9988 67.0359C57.2567 65.0716 61.738 62.0319 65.1885 57.5581C66.5254 55.8179 67.571 53.8835 68.7361 52.0313C68.7809 52.0014 68.7585 51.9416 68.766 51.8819ZM1.83154 62.7937C1.87635 63.1671 2.04813 63.3389 2.18257 63.5256C3.57921 65.5123 5.1327 67.3794 6.79822 69.1421C9.19567 71.6814 12.0263 73.5411 15.3125 74.7286C17.583 75.5502 19.9133 76.0655 22.2958 76.3718C24.4766 76.6556 26.6575 76.6481 28.8309 76.2074C30.3844 75.8938 31.893 75.4307 33.3943 74.9452C34.0739 74.7286 34.0739 74.7286 34.0888 74.0191C34.0888 73.8249 34.171 73.6009 33.9693 73.4291C33.3494 73.5337 32.7295 73.6382 32.1096 73.7577C30.5487 74.0415 30.3246 73.9444 29.4508 72.5926C29.3537 72.4358 29.2566 72.2789 29.152 72.1295C28.2782 70.8375 27.3371 69.6051 26.1795 68.5446C23.5804 66.1471 20.5033 64.6384 17.1274 63.7347C14.1848 62.9505 11.1525 62.7414 8.12018 62.6443C6.03641 62.5696 3.96012 62.7489 1.83154 62.7937ZM29.7794 87.7914C31.0267 87.9408 31.7959 87.2387 32.3188 86.1558C32.5353 85.7002 32.6698 85.2147 32.7743 84.7292C32.9013 84.1467 32.849 84.0795 32.2515 84.1019C30.7877 84.1616 29.391 84.5052 28.0541 85.1027C27.8375 85.1998 27.6359 85.3267 27.4492 85.4686C26.8517 85.9317 26.8143 86.5591 27.3446 87.0968C27.6135 87.3657 27.9421 87.5225 28.3006 87.6271C28.7711 87.7541 29.2417 87.8138 29.7794 87.7914Z" fill="#303030"/>
</svg>
