<svg width="20" height="20" viewBox="0 0 20 20" fill="none" xmlns="http://www.w3.org/2000/svg">
<path d="M9.16667 1.66669C13.3067 1.66669 16.6667 5.02669 16.6667 9.16669C16.6667 13.3067 13.3067 16.6667 9.16667 16.6667C5.02667 16.6667 1.66667 13.3067 1.66667 9.16669C1.66667 5.02669 5.02667 1.66669 9.16667 1.66669ZM9.16667 15C12.3892 15 15 12.3892 15 9.16669C15 5.94335 12.3892 3.33335 9.16667 3.33335C5.94334 3.33335 3.33334 5.94335 3.33334 9.16669C3.33334 12.3892 5.94334 15 9.16667 15ZM16.2375 15.0592L18.595 17.4159L17.4158 18.595L15.0592 16.2375L16.2375 15.0592Z" fill="#242424"/>
</svg>
